<?xml version="1.0" encoding="UTF-8"?>
<svg width="98px" height="61px" viewBox="0 0 98 61" version="1.1" xmlns="http://www.w3.org/2000/svg" xmlns:xlink="http://www.w3.org/1999/xlink">
    <!-- Generator: Sketch 59.1 (86144) - https://sketch.com -->
    <title>Path 2</title>
    <desc>Created with Sketch.</desc>
    <g id="Page-1" stroke="none" stroke-width="1" fill="none" fill-rule="evenodd">
        <g id="Home" transform="translate(-584.000000, -22.000000)" stroke="#979797">
            <path d="M586,40.1437337 C586.111094,45.0951527 585.963313,50.0591907 586.333283,54.9979908 C586.557721,57.9940529 591.365142,56.8663544 591.78049,53.9396631 C592.367996,49.799874 592.719921,45.613011 592.730167,41.4316647 C592.786493,18.4451621 589.318467,37.5453889 591.475876,47.6363351 C593.562662,57.3969491 598.176184,66.4776213 600.522898,76.178895 C601.361155,79.6442362 601.413297,83.3290071 600.965483,86.866211 C600.829275,87.9420983 599.86718,88.9512199 598.856483,89.3416215 C597.22379,89.9722811 595.278457,90.2599962 593.618922,89.7039642 C591.058211,88.8459908 588.760867,83.3005562 588.18605,81.4382455 C583.703002,66.9139283 591.638557,63.6268097 599.191558,53.0822383 C600.148382,51.7464369 600.736615,50.1611999 601.232468,48.5942113 C601.900993,46.4815481 600.462814,41.8857712 602.665944,42.1025368 C604.910399,42.3233685 602.857078,46.6652486 603.529613,48.8202271 C603.911797,50.0448467 604.827552,51.0699751 605.744332,51.9665098 C606.886812,53.0837601 607.49574,51.7383274 607.763741,50.9476451 C608.749525,48.0392875 609.151074,44.9195693 610.437172,42.1312373 C610.808006,41.3272489 610.386016,43.9250605 610.607397,44.7824378 C610.888775,45.872169 611.305718,46.9512317 611.924403,47.8910512 C612.797156,49.2168148 613.779305,50.5232924 615.029669,51.5001281 C615.986764,52.2478497 617.408418,53.6639439 618.378626,52.9333549 C619.635257,51.9870825 619.194702,49.86998 619.281716,48.2982383 C619.49688,44.4117091 619.686225,40.4921305 619.281716,36.6207581 C619.040641,34.3135434 618.172481,32.1053004 617.36265,29.9317683 C617.10979,29.2531088 616.410089,27.4814469 616.124486,28.1469614 C614.705132,31.4543457 623.360927,48.7681882 628.264231,45.7403141 C628.640188,45.5081541 628.608409,44.8780666 628.961258,44.6120291 L631.369497,37.173241 C632.692177,36.1759807 631.852673,40.4690794 632.365763,42.045136 C632.75974,43.2553152 633.360318,44.4048425 634.068015,45.4622788 C634.309881,45.8236749 634.948596,46.5858109 635.144913,46.1977269 C636.38919,43.738018 636.719439,40.9093749 637.678581,38.3248451 C637.908098,37.706382 638.234261,37.0983618 638.696348,36.6279332 C640.012931,35.2875846 641.420432,34.0176223 642.96273,32.9453116 C643.244808,32.7491912 643.73126,32.7227655 643.99304,32.9453116 C644.759167,33.5966168 646.414599,34.5614143 645.802803,35.3597338 C644.13247,37.5393156 636.234013,33.0855836 639.201648,41.3078942 C639.724095,42.7554149 640.927181,43.8854035 642.03993,44.9474652 C642.424065,45.3141023 643.120099,45.7703266 643.548663,45.4568975 C644.090493,45.0606309 643.985181,44.1688428 644.02171,43.4980944 C644.184819,40.5030653 644.042491,37.4982241 644.145347,34.5005152 C644.158757,34.1096815 644.110839,35.3174172 644.290486,35.6646756 C644.671791,36.4017383 645.248674,37.021722 645.779509,37.6593543 C646.385505,38.3872696 646.950483,39.1734225 647.696782,39.7562781 C648.368875,40.2811789 649.116493,40.9193882 649.968841,40.9312013 C650.492134,40.9384538 650.832004,40.2735839 651.061866,39.8029163 C654.354987,33.0598954 641.71108,27.0859223 655.279867,44.4595582 C656.602758,46.1534029 653.991419,40.3396366 653.670791,38.213631 C653.450912,36.7556697 653.463354,35.2499673 653.670791,33.79018 C653.734166,33.3441924 654.152565,33.0235971 654.455619,32.6905954 C654.738125,32.3801725 654.996869,31.9163414 655.414256,31.8744274 C656.254293,31.7900709 657.279944,31.7742156 657.903127,32.3443967 C660.469601,34.6925893 661.478496,38.8683835 664.640462,40.3159362 C665.992171,40.9347508 666.236401,37.7954962 666.86414,36.4467619 C667.275575,35.5627723 667.554979,34.6130617 667.740352,33.6556468 C667.958539,32.5287574 668.089702,31.3754029 668.06826,30.2277413 C668.063245,29.9593072 667.920745,29.6070089 667.663303,29.5317563 C662.592849,28.049616 660.267123,33.0148022 663.285827,37.4997082 C663.913274,38.4319091 664.459198,40.4847025 665.49338,40.0468698 C666.910521,39.446907 666.325604,34.6108653 667.306726,35.797415 L668.165019,35.1247491 C669.933534,37.263557 670.93969,39.9466567 672.585499,42.181463 C675.225561,45.7663422 678.195166,49.0958706 681,52.5530744" id="Path-2" transform="translate(633.500000, 59.000000) rotate(11.000000) translate(-633.500000, -59.000000) "></path>
        </g>
    </g>
</svg>